<?xml version="1.0" encoding="utf-8"?>
<!-- Generator: Adobe Illustrator 24.3.0, SVG Export Plug-In . SVG Version: 6.00 Build 0)  -->
<svg version="1.1" id="Layer_1" xmlns="http://www.w3.org/2000/svg" xmlns:xlink="http://www.w3.org/1999/xlink" x="0px" y="0px"
	 viewBox="0 0 578 200" style="enable-background:new 0 0 578 200;" xml:space="preserve">
<style type="text/css">
	.st0{fill:url(#SVGID_1_);}
</style>
<linearGradient id="SVGID_1_" gradientUnits="userSpaceOnUse" x1="105.4304" y1="-84.6749" x2="472.5578" y2="282.4525">
	<stop  offset="0.1005" style="stop-color:#00FFFF"/>
	<stop  offset="0.3212" style="stop-color:#1B72CA"/>
	<stop  offset="0.4293" style="stop-color:#2832B2"/>
	<stop  offset="0.6685" style="stop-color:#00A99D"/>
	<stop  offset="0.9511" style="stop-color:#0071BC"/>
</linearGradient>
<path class="st0" d="M347.6,0c-2.4,0-4.7,0.2-6.9,0.7c-16.3,3.2-28.5,17.5-28.5,34.8c0,0,0,0,0,0c0,17.2,12.3,31.5,28.5,34.7v48.5
	c0,13.9-1.2,23.5-3.6,28.9c-5.6,12.7-19.1,19-40.5,19c-14.1,0-25.3-3.8-33.7-11.3c-7.4-6.7-11-18.9-11-36.6V35.5v0
	C251.9,15.9,236,0,216.4,0c-2.4,0-4.7,0.2-6.9,0.7C193.3,3.9,181,18.2,181,35.4c0,0,0,0,0,0c0,17.2,12.3,31.5,28.5,34.7v49.8
	c0,15.1,1.3,26.8,4,35.3c2.7,8.4,7.4,16.1,14.2,23.1c14.3,14.5,37.2,21.7,68.6,21.7c28,0,49.8-6.4,65.3-19.3
	c14.3-11.9,21.5-33.1,21.5-63.7V35.4C383,15.9,367.1,0,347.6,0z M347.6,54.4c-10.5,0-19-8.5-19-19s8.5-19,19-19c10.5,0,19,8.5,19,19
	S358.1,54.4,347.6,54.4z M166.9,42.9c2.9-3.2,5-7.1,6-11.4c0.4-1.9,0.7-3.8,0.7-5.9s-0.3-4-0.7-5.9C170.2,8.5,160.1,0,147.9,0H35.4
	C15.9,0,0,15.9,0,35.4c0,0,0,0,0,0C0,55,15.9,70.9,35.4,70.9C55,70.9,70.8,55,70.9,35.5h54.5L8.5,155.4c-4.4,4.6-7.1,10.8-7.1,17.7
	c0,14.2,11.5,25.7,25.7,25.7h110.4c19.6,0,35.4-15.8,35.4-35.4c0,0,0,0,0,0s0,0,0,0c0-19.6-15.9-35.4-35.4-35.4
	c-19.6,0-35.4,15.8-35.4,35.4H51.9L166.9,42.9z M35.4,54.4c-10.5,0-19-8.5-19-19s8.5-19,19-19c10.5,0,19,8.5,19,19
	S45.9,54.4,35.4,54.4z M571,42.9c2.9-3.2,5-7.1,6-11.4c0.4-1.9,0.7-3.8,0.7-5.9s-0.3-4-0.7-5.9C574.3,8.5,564.1,0,552,0H439.5
	c-19.6,0-35.4,15.9-35.4,35.4c0,0,0,0,0,0c0,19.6,15.9,35.4,35.4,35.4c19.6,0,35.4-15.8,35.4-35.4h54.5L412.6,155.4
	c-4.4,4.6-7.1,10.8-7.1,17.7c0,14.2,11.5,25.7,25.7,25.7h110.4c19.6,0,35.4-15.8,35.4-35.4c0,0,0,0,0,0s0,0,0,0
	c0-19.6-15.9-35.4-35.4-35.4c-19.6,0-35.4,15.8-35.4,35.4h-50.1L571,42.9z M541.5,144.4c10.5,0,19,8.5,19,19s-8.5,19-19,19
	c-10.5,0-19-8.5-19-19S531.1,144.4,541.5,144.4z"/>
</svg>
